<?xml version="1.0" encoding="UTF-8" standalone="no"?>
<!-- Created with Inkscape (http://www.inkscape.org/) -->

<svg
   width="210mm"
   height="297mm"
   viewBox="0 0 210 297"
   version="1.1"
   id="svg1"
   inkscape:version="1.3.2 (091e20e, 2023-11-25, custom)"
   sodipodi:docname="orange.svg"
   xmlns:inkscape="http://www.inkscape.org/namespaces/inkscape"
   xmlns:sodipodi="http://sodipodi.sourceforge.net/DTD/sodipodi-0.dtd"
   xmlns="http://www.w3.org/2000/svg"
   xmlns:svg="http://www.w3.org/2000/svg">
  <sodipodi:namedview
     id="namedview1"
     pagecolor="#ffffff"
     bordercolor="#000000"
     borderopacity="0.25"
     inkscape:showpageshadow="2"
     inkscape:pageopacity="0.0"
     inkscape:pagecheckerboard="0"
     inkscape:deskcolor="#d1d1d1"
     inkscape:document-units="mm"
     inkscape:zoom="0.76702441"
     inkscape:cx="396.98867"
     inkscape:cy="565.17106"
     inkscape:window-width="1858"
     inkscape:window-height="1057"
     inkscape:window-x="-8"
     inkscape:window-y="-8"
     inkscape:window-maximized="1"
     inkscape:current-layer="layer1" />
  <defs
     id="defs1" />
  <g
     inkscape:label="Layer 1"
     inkscape:groupmode="layer"
     id="layer1">
    <circle
       style="fill:#e76d00;stroke-width:4;fill-opacity:1;stroke-dasharray:none;stroke:#000000;stroke-opacity:1"
       id="path1"
       cx="108.31359"
       cy="154.53658"
       r="30.010452" />
    <path
       style="fill:#008000;fill-opacity:1;stroke:#000000;stroke-width:4;stroke-dasharray:none;stroke-opacity:1"
       id="path9"
       d="m 113.52001,130.18294 c -0.16407,-4.16131 -0.16455,-8.35886 0.56854,-12.4752 0.27205,-1.52758 0.68739,-3.02615 1.03109,-4.53922 1.56969,-5.91514 4.06279,-11.50783 6.66238,-17.025444 0,0 -3.01513,-1.703049 -3.01513,-1.703049 v 0 c -2.48627,5.594533 -4.9512,11.222303 -6.60877,17.131273 -0.37574,1.50884 -0.81963,3.00234 -1.12723,4.52653 -0.8172,4.04935 -0.91601,8.18231 -1.02477,12.29469 z" />
    <path
       style="fill:#d45500;fill-opacity:1;stroke:#000000;stroke-width:4.7;stroke-dasharray:none;stroke-opacity:1"
       id="path10"
       d="m 114.71628,121.93417 c 0.11485,-0.23681 0.21031,-0.48405 0.34457,-0.71042 0.59477,-1.00286 1.20197,-1.75933 1.96131,-2.66971 1.67716,-2.01078 3.50604,-3.86352 5.35573,-5.71322 1.66847,-1.52725 3.31898,-3.08932 5.11964,-4.46388 0.38262,-0.29209 1.52346,-1.16947 2.13702,-1.25924 0.24065,-0.0352 0.47146,0.11974 0.7072,0.17961 -0.91634,-0.43758 -1.74868,-1.13813 -2.74901,-1.31274 -0.35419,-0.0618 0.40165,0.60056 0.5487,0.92867 0.68676,1.53232 0.885,3.28455 1.02469,4.93764 0.11841,1.92517 -0.38146,3.73209 -1.08971,5.49811 -0.85819,1.96841 -2.46696,3.29494 -4.22516,4.43076 -1.75866,0.85058 -3.66934,1.24947 -5.59358,1.49487 -0.82345,0.0669 -1.63946,0.19744 -2.46028,0.28973 0,0 3.19745,2.26652 3.19745,2.26652 v 0 c 0.81648,-0.0997 1.63095,-0.21478 2.44798,-0.31031 1.95005,-0.30749 3.89212,-0.7512 5.66308,-1.65434 1.79471,-1.20445 3.43712,-2.61728 4.34832,-4.6292 0.74259,-1.81938 1.27198,-3.68056 1.15056,-5.67016 -0.14171,-1.70116 -0.372,-3.45582 -0.95374,-5.07193 -0.12773,-0.35484 -0.17149,-0.79614 -0.46693,-1.03053 -1.22395,-0.97104 -2.64722,-1.66016 -3.97083,-2.49024 -0.26658,0.007 -0.54469,-0.0559 -0.79975,0.022 -0.62928,0.19218 -1.65818,1.04111 -2.09093,1.39647 -1.74889,1.43617 -3.3703,3.02166 -5.03048,4.55641 -1.86892,1.85469 -3.73023,3.70959 -5.47377,5.68456 -0.69867,0.7914 -1.53496,1.76359 -2.13616,2.65999 -0.15003,0.2237 -0.26003,0.47179 -0.39004,0.70769 z" />
    <path
       style="fill:#008000;fill-opacity:1;stroke:none;stroke-width:0;stroke-dasharray:none;stroke-opacity:1"
       d="m 448.95807,453.3754 c 1.43267,-1.9719 9.16158,-10.03879 17.17535,-17.92642 l 14.5705,-14.34113 -0.91127,6.46989 c -1.38276,9.81731 -4.34827,15.94435 -10.10005,20.86765 -5.35091,4.58018 -14.69665,8.51529 -20.22351,8.51529 h -3.11588 z"
       id="path11"
       transform="scale(0.26458333)" />
  </g>
</svg>
