<?xml version="1.0" encoding="UTF-8" standalone="no"?>
<!-- Created with Inkscape (http://www.inkscape.org/) -->

<svg
   width="124.25443mm"
   height="124.25443mm"
   viewBox="0 0 124.25443 124.25443"
   version="1.1"
   id="svg1"
   inkscape:version="1.3.2 (091e20e, 2023-11-25, custom)"
   sodipodi:docname="drawing.svg"
   xmlns:inkscape="http://www.inkscape.org/namespaces/inkscape"
   xmlns:sodipodi="http://sodipodi.sourceforge.net/DTD/sodipodi-0.dtd"
   xmlns:xlink="http://www.w3.org/1999/xlink"
   xmlns="http://www.w3.org/2000/svg"
   xmlns:svg="http://www.w3.org/2000/svg">
  <sodipodi:namedview
     id="namedview1"
     pagecolor="#ffffff"
     bordercolor="#000000"
     borderopacity="0.25"
     inkscape:showpageshadow="2"
     inkscape:pageopacity="0.0"
     inkscape:pagecheckerboard="0"
     inkscape:deskcolor="#d1d1d1"
     inkscape:document-units="mm"
     inkscape:zoom="0.54236816"
     inkscape:cx="521.78579"
     inkscape:cy="563.27053"
     inkscape:window-width="1858"
     inkscape:window-height="1057"
     inkscape:window-x="-8"
     inkscape:window-y="-8"
     inkscape:window-maximized="1"
     inkscape:current-layer="layer1" />
  <defs
     id="defs1">
    <linearGradient
       id="swatch4"
       inkscape:swatch="solid">
      <stop
         style="stop-color:#000000;stop-opacity:1;"
         offset="0"
         id="stop5" />
    </linearGradient>
    <linearGradient
       inkscape:collect="always"
       xlink:href="#swatch4"
       id="linearGradient5"
       x1="52.644707"
       y1="139.01393"
       x2="155.7037"
       y2="139.01393"
       gradientUnits="userSpaceOnUse"
       gradientTransform="translate(-42.046997,-76.886718)" />
  </defs>
  <g
     inkscape:label="Layer 1"
     inkscape:groupmode="layer"
     id="layer1">
    <circle
       style="fill:#00ff24;fill-opacity:1;stroke:url(#linearGradient5);stroke-width:21.46;stroke-dasharray:none;paint-order:normal"
       id="path1"
       cx="62.127213"
       cy="62.127213"
       r="51.397213" />
    <path
       style="fill:none;fill-opacity:1;stroke-width:149.545;stroke-dasharray:none;paint-order:normal"
       d="M 208.34822,467.28147 C 105.07701,454.42262 22.334521,376.06879 4.5934321,274.33386 -1.3559732,240.21744 2.1413788,193.00919 12.965187,161.32953 28.257142,116.57228 58.381397,75.15382 96.105827,47.017751 158.15184,0.74187907 241.85529,-11.331805 315.00287,15.443263 c 71.52334,26.180532 127.20651,87.863907 146.19651,161.950077 7.28494,28.42097 9.06073,65.6746 4.46337,93.63582 -16.06387,97.70074 -89.89897,173.96715 -187.25408,193.4201 -18.04781,3.60622 -52.62003,5.00379 -70.06045,2.83221 z m 45.81025,-79.24265 c 76.79108,-9.62879 134.87616,-75.50119 134.87616,-152.95865 0,-71.39388 -47.21901,-132.0898 -117.07914,-150.495006 -17.69757,-4.662567 -57.66363,-4.643853 -74.66817,0.03496 -48.61434,13.376291 -86.42548,45.966916 -104.946697,90.456876 -15.361508,36.90001 -15.137686,85.97708 0.55393,121.4586 21.746607,49.17293 68.782337,84.62035 121.337897,91.44355 16.87463,2.19082 22.8584,2.19976 39.92602,0.0597 z"
       id="path5"
       transform="scale(0.26458333)" />
    <path
       style="fill:none;fill-opacity:1;stroke-width:149.545;stroke-dasharray:none;paint-order:normal"
       d="M 213.38615,386.22669 C 161.96174,378.11843 118.9842,346.10782 96.877338,299.44835 78.598319,260.86804 77.823073,211.99854 94.881021,173.60575 119.04819,119.21206 175.45455,82.173949 234.2806,82.071811 c 61.16925,-0.106206 117.97601,37.826979 141.55424,94.523989 13.51172,32.49074 15.07479,71.98712 4.1387,104.57852 -20.8425,62.11414 -74.0931,102.64871 -139.10719,105.88892 -9.26683,0.46187 -21.63292,0.0854 -27.4802,-0.83655 z"
       id="path6"
       transform="scale(0.26458333)" />
    <path
       style="fill:none;fill-opacity:1;stroke-width:149.545;stroke-dasharray:none;paint-order:normal"
       d="M 213.38615,386.22669 C 161.96174,378.11843 118.9842,346.10782 96.877338,299.44835 78.598319,260.86804 77.823073,211.99854 94.881021,173.60575 119.04819,119.21206 175.45455,82.173949 234.2806,82.071811 c 61.16925,-0.106206 117.97601,37.826979 141.55424,94.523989 13.51172,32.49074 15.07479,71.98712 4.1387,104.57852 -20.8425,62.11414 -74.0931,102.64871 -139.10719,105.88892 -9.26683,0.46187 -21.63292,0.0854 -27.4802,-0.83655 z"
       id="path7"
       transform="scale(0.26458333)" />
    <path
       style="fill:none;fill-opacity:1;stroke-width:149.545;stroke-dasharray:none;paint-order:normal"
       d="M 213.38615,386.22669 C 161.96174,378.11843 118.9842,346.10782 96.877338,299.44835 78.598319,260.86804 77.823073,211.99854 94.881021,173.60575 119.04819,119.21206 175.45455,82.173949 234.2806,82.071811 c 61.16925,-0.106206 117.97601,37.826979 141.55424,94.523989 13.51172,32.49074 15.07479,71.98712 4.1387,104.57852 -20.8425,62.11414 -74.0931,102.64871 -139.10719,105.88892 -9.26683,0.46187 -21.63292,0.0854 -27.4802,-0.83655 z"
       id="path8"
       transform="scale(0.26458333)" />
    <path
       style="fill:none;fill-opacity:1;stroke-width:149.545;stroke-dasharray:none;paint-order:normal"
       d="M 213.38615,386.22669 C 161.96174,378.11843 118.9842,346.10782 96.877338,299.44835 78.598319,260.86804 77.823073,211.99854 94.881021,173.60575 119.04819,119.21206 175.45455,82.173949 234.2806,82.071811 c 61.16925,-0.106206 117.97601,37.826979 141.55424,94.523989 13.51172,32.49074 15.07479,71.98712 4.1387,104.57852 -20.8425,62.11414 -74.0931,102.64871 -139.10719,105.88892 -9.26683,0.46187 -21.63292,0.0854 -27.4802,-0.83655 z"
       id="path9"
       transform="scale(0.26458333)" />
    <path
       style="fill:none;fill-opacity:1;stroke-width:149.545;stroke-dasharray:none;paint-order:normal"
       d="M 213.38615,386.22669 C 161.96174,378.11843 118.9842,346.10782 96.877338,299.44835 78.598319,260.86804 77.823073,211.99854 94.881021,173.60575 119.04819,119.21206 175.45455,82.173949 234.2806,82.071811 c 61.16925,-0.106206 117.97601,37.826979 141.55424,94.523989 13.51172,32.49074 15.07479,71.98712 4.1387,104.57852 -20.8425,62.11414 -74.0931,102.64871 -139.10719,105.88892 -9.26683,0.46187 -21.63292,0.0854 -27.4802,-0.83655 z"
       id="path10"
       transform="scale(0.26458333)" />
    <path
       style="fill:none;fill-opacity:1;stroke-width:149.545;stroke-dasharray:none;paint-order:normal"
       d="M 213.38615,386.22669 C 161.96174,378.11843 118.9842,346.10782 96.877338,299.44835 78.598319,260.86804 77.823073,211.99854 94.881021,173.60575 119.04819,119.21206 175.45455,82.173949 234.2806,82.071811 c 61.16925,-0.106206 117.97601,37.826979 141.55424,94.523989 13.51172,32.49074 15.07479,71.98712 4.1387,104.57852 -20.8425,62.11414 -74.0931,102.64871 -139.10719,105.88892 -9.26683,0.46187 -21.63292,0.0854 -27.4802,-0.83655 z"
       id="path11"
       transform="scale(0.26458333)" />
  </g>
</svg>
